<?xml version="1.0" encoding="utf-8"?>
<!-- Generator: Adobe Illustrator 27.5.0, SVG Export Plug-In . SVG Version: 6.00 Build 0)  -->
<svg version="1.1" id="BASE" xmlns="http://www.w3.org/2000/svg" xmlns:xlink="http://www.w3.org/1999/xlink" x="0px" y="0px"
	 viewBox="0 0 2196 2050" style="enable-background:new 0 0 2196 2050;" xml:space="preserve">
<g>
	<g>
		<path style="fill:#008AC0;" d="M1930.156,1494.261c-0.994-3.121-0.343-6.499,0.303-9.711c5.741-28.588,10.592-58.425,5.827-87.525
			c-1.103-6.735-2.238-14.062-3.656-21.548c-3.761-19.849-9.516-40.81-21.96-54.777c-13.212-14.83-38.961-20.348-52.649-5.956
			c-12.87,13.53-8.635,35.069-7.348,53.698c1.287,18.63-6.938,42.838-25.607,42.514c-8.48-0.148-15.807-5.734-22.109-11.41
			c-117.143-105.515-94.607-299.756-184.505-429.272c-24.816-35.752-67.862-68.029-108.843-53.378
			c-35.111,12.552-51.164,55.54-46.08,92.479c5.084,36.939,25.935,69.474,44.967,101.538
			c44.745,75.388,82.034,155.198,111.147,237.888c6.427,18.256,12.527,37.807,8.158,56.661c-4.37,18.854-23.359,35.671-42.02,30.534
			c-12.44-3.424-20.661-14.913-27.847-25.631c-18.45-27.515-36.9-55.031-55.35-82.545c-13.401-19.984-34.806-42.741-57.162-33.847
			c-18.559,7.385-22.694,31.859-20.588,51.722c8.076,76.193,50.331,150.319,79.195,220.531
			c-16.732,4.142-32.649-9.321-42.483-23.478c-15.652-22.534-24.463-48.988-36.568-73.61c-12.105-24.624-28.967-48.733-54.096-59.75
			c-25.129-11.014-59.698-3.764-71.19,21.152c-8.376,18.156-2.82,39.252,0.328,58.998c3.146,19.745,2.091,43.448-14.208,55.031
			c-10.67-9.718-14.511-24.635-21.594-37.21c-7.082-12.575-21.505-24.007-34.911-18.661c-14.245,5.682-15.99,25.118-13.378,40.231
			c2.611,15.112,6.737,32.37-2.704,44.456c-8.957,11.465-25.089,14.119-36.359,22.429c-4.405,3.249-8.425,7.269-10.587,12.297
			c-2.162,5.028-2.199,11.192,0.897,15.705c9.305,13.557,36.526,7.387,49.545,5.568c22.602-3.156,45.336-5.382,68.118-6.7
			c45.567-2.637,91.347-1.611,136.748,3.098c20.602,2.137,41.752,5.238,59.589,15.765c53.972,31.857,8.959,74.247-25.359,100.179
			c-38.127,28.808-87.364,44.29-135.157,39.758c-159.301-15.105-264.04-194.823-265.08-341.759
			c-0.463-65.394,14.5-130.04,34.886-192.176c12.887-39.279,28.126-78.611,29.856-119.913c0.583-13.92-3.756-31.812-17.576-33.582
			c-18.482-2.368-31.138,27.876-48.81,21.97c-29.151-9.744,10.103-62.448-22.902-80.611c-14.279-7.858-33.295-4.581-45.39,6.344
			c-18.765,16.949-19.621,45.393-26.321,69.775c-6.702,24.382-30.131,50.237-53.279,40.061
			c-12.625-5.551-18.876-19.693-22.765-32.924c-23.938-81.459-0.55-169.605,35.092-246.665
			c35.643-77.06,83.501-148.514,112.446-228.331c13.53-37.306,17.322-70.006,10.188-108.717
			c-4.554-24.71-4.597-54.772-25.132-73.202c-11.79-10.581-26.442-18.026-36.515-30.254c-9.42-11.435-15.19-27.235-28.84-32.999
			c-8.092-3.417-17.417-2.465-25.751-5.241c-23.374-7.786-27.852-38.503-27.183-63.131c1.073-39.524,4.587-80.462-9.608-117.363
			c-14.195-36.902-52.983-68.117-91.309-58.4c-32.087,8.135-51.473,40.499-63.305,71.415
			c-11.833,30.915-20.633,64.846-44.636,87.642c-24.002,22.797-70.239,25.875-85.59-3.453c-3.552-6.786-5.911-15.443-13.077-18.148
			c-3.503-1.322-7.425-0.818-11.06,0.085c-24.324,6.046-41.551,28.497-49.787,52.169c-8.237,23.673-9.368,49.118-13.27,73.877
			c-5.164,32.758-15.315,64.727-29.996,94.463c-6.935,14.047-15.225,28-27.828,37.306c-12.603,9.306-30.444,12.99-44.141,5.386
			c-19.283-10.706-29.014-41.165-50.897-38.412c-15.888,1.998-22.9,20.806-25.83,36.549
			c-27.597,148.311,44.554,281.016,36.37,428.248c-0.669,12.028-4.27,26.811-16.015,29.486c-5.68,1.294-11.59-0.88-17.401-0.46
			c-21.698,1.571-24.555,32.672-18.299,53.507c28.866,96.14,108.796,172.095,130.252,270.155
			c2.808,12.831,4.467,26.695-0.788,38.732c-22.265,50.996-98.492-1.066-122.596-23.755c-26.864-25.287-49.036-55.54-78.042-78.338
			c-8.356-6.568-17.842-12.686-28.459-13.165c-27.021-1.218-41.32,32.15-42.124,59.188c-1.167,39.259,9.791,78.795,31.002,111.852
			c17.626,27.47,43.322,54.562,39.801,87.009c-16.693-2.157-30.312,16.193-29.529,33.011
			c2.288,49.028,68.082,102.259,102.807,130.553c45.466,37.044,96.476,66.974,149.633,91.539
			c261.695,120.936,548.59,125.42,831.868,125.484c13.434,0.003,26.867,0.007,40.302,0.033
			c114.2,0.229,228.703,3.944,341.913-13.621c33.581-5.21,80.655-24.24,82.069-64.132c0.209-5.919-0.576-11.86-0.035-17.758
			c1.916-20.886,19.389-36.381,35.05-50.333c26.138-23.285,50.595-48.457,73.119-75.253c30.069-35.774,57.421-76.213,64.762-122.365
			c2.822-17.74,2.157-37.305-8.496-51.768C1932.814,1498.924,1930.974,1496.833,1930.156,1494.261z"/>
		<path style="fill:#008AC0;" d="M1390.683,1022.811c7.978,6.266,20.612,7.575,27.842,0.46c4.122-4.056,5.784-9.924,7.245-15.52
			c6.255-23.963,11.782-48.928,7.48-73.318c-2.865-16.244-10.937-32.219-23.63-42.972c-10.467-8.866-29.189-17.912-39.916-4.57
			c-4.607,5.73-6.213,13.267-7.202,20.553c-2.839,20.926-1.609,42.371,3.394,62.88
			C1369.959,986.985,1376.574,1011.73,1390.683,1022.811z"/>
		<path style="fill:#008AC0;" d="M1424.678,1051.86c-5.427,1.396-10.518,4.26-14.4,8.468c-14.671,15.901,2.429,44.102,22.818,43.238
			c18.358-0.779,31.259-24.442,21.969-40.295C1448.689,1052.391,1435.955,1048.958,1424.678,1051.86z"/>
		<path style="fill:#008AC0;" d="M1829.758,1227.254c-2.193,12.488,1.917,29.683,5.38,36.855c1.524,3.157,3.437,6.291,6.387,8.185
			c3.039,1.952,7.026,2.337,10.383,1.004c19.565-7.773,15.617-43.504,3.333-55.246c-2.77-2.648-6.198-4.902-10.026-5.11
			C1835.672,1212.42,1831.252,1218.744,1829.758,1227.254z"/>
		<path style="fill:#008AC0;" d="M1807.257,1165.913c1.214,3.224,2.422,6.53,4.182,9.465c0.748,1.246,1.594,2.424,2.583,3.5
			c3.32,3.614,8.73,5.806,13.246,3.887c2.634-1.12,4.574-3.438,6.042-5.895c7.223-12.094,4.793-33.481,2.016-46.598
			c-4.57-21.59-11.95-42.583-21.895-62.283c-6.082-12.05-13.451-23.979-24.55-31.662c-12.499-8.65-39.286-13.335-40.879,7.954
			c-1.226,16.38,9.53,30.891,18.854,44.414C1783.387,1112.669,1796.986,1138.663,1807.257,1165.913z"/>
		<path style="fill:#008AC0;" d="M2049.294,1345.139c-1.594-21.288-28.38-16.604-40.878-7.954
			c-11.098,7.682-18.467,19.612-24.551,31.662c-9.943,19.7-17.324,40.693-21.895,62.283c-2.776,13.117-5.205,34.504,2.016,46.598
			c1.468,2.458,3.408,4.776,6.042,5.895c4.516,1.919,9.927-0.273,13.247-3.887c0.988-1.077,1.836-2.255,2.582-3.5
			c1.76-2.935,2.968-6.241,4.183-9.465c10.271-27.25,23.87-53.244,40.4-77.219
			C2039.764,1376.03,2050.521,1361.519,2049.294,1345.139z"/>
		<path style="fill:#008AC0;" d="M954.358,337.194c6.175,5.44,14.113,7.614,22.238,9.571c6.851,1.65,13.834,3.146,20.006,6.318
			c15.123,7.771,23.376,24.505,28.11,40.836c4.733,16.331,7.081,33.593,15.105,48.583c1.91,3.569,4.265,7.106,7.788,9.097
			c8.139,4.598,18.968-1.475,22.819-9.992c4.096-9.06,2.99-21.226,4.144-30.992c1.572-13.297-2.199-27.891-7.32-40.082
			c-12.247-29.149-55.093-92.505-93.185-86.451c-12.819,2.038-20.646,6.762-25.001,18.746
			C944.736,314.733,943.813,327.901,954.358,337.194z"/>
		<path style="fill:#008AC0;" d="M1087.934,559.722c2.723,1.985,5.932,3.594,9.299,3.439c6.659-0.305,11.05-7.118,12.966-13.504
			c5.044-16.82,0.481-36.174-11.545-48.969c-6.473-6.886-15.9-8.143-22.472-0.22
			C1063.256,516.045,1073.047,548.872,1087.934,559.722z"/>
		<path style="fill:#008AC0;" d="M1115.966,492.91c1.796,2.556,4.21,4.601,7.159,5.612c5.146,1.765,11.099,0.009,15.112-3.665
			c16.347-14.965-7.031-56.62-20.347-39.452c-2.654,3.421-3.584,7.837-4.367,12.097c-1.069,5.826-2,11.831-0.838,17.64
			C1113.235,487.893,1114.35,490.61,1115.966,492.91z"/>
		<path style="fill:#008AC0;" d="M306.794,1228.636c7.43,5.568,23.462,17.745,33.685,14.058c11.878-4.283,8.3-19.08,3.779-27.235
			c-10.085-18.192-22.313-35.183-31.492-53.848c-15.599-31.722-21.921-67.939-17.99-103.069c2.478-22.153,8.531-46.33-2.929-65.449
			c-3.251-5.425-9.919-11.084-16.682-10.414c-6.507,0.647-11.11,11.304-17.282,9.205c-2.533-0.861-3.882-3.567-4.83-6.07
			c-19.529-51.572,19.216-103.809,5.113-155.903c-7.054-26.056-35.355-49.89-64.005-40.003
			c-28.245,9.747-42.421,55.229-46.208,81.623c-6.16,42.919,6.961,86.083,21.344,126.988
			c16.779,47.715,35.668,95.345,62.331,138.512C247.699,1163.052,276.303,1205.784,306.794,1228.636z"/>
		<path style="fill:#008AC0;" d="M293.392,964.732c3.518,5.015,7.728,9.417,12.718,12.679c4.561,2.983,10.395,4.484,15.553,2.723
			c4.483-1.53,7.925-5.349,9.864-9.671c1.939-4.322,2.529-9.127,2.694-13.862c0.637-18.353-4.12-37.722-17.667-50.74
			c-4.842-4.653-11.018-8.581-17.732-8.378c-8.145,0.245-15.145,6.787-17.909,14.453c-2.763,7.667-1.972,16.182,0.006,24.088
			C283.321,945.621,287.329,956.088,293.392,964.732z"/>
	</g>
	<g>
		<g>
			<path style="fill:#02B3D9;" d="M401.34,912.529c-0.743-0.435-1.316-0.972-1.755-1.589c-0.077-0.001-0.151-0.004-0.228-0.006
				c1.299,1.821,2.653,3.564,4.062,5.225c-0.02-0.144-0.039-0.289-0.058-0.432c-0.119-0.896-0.12-1.681-0.002-2.473
				C402.665,913.143,401.983,912.905,401.34,912.529z"/>
			<path style="fill:#02B3D9;" d="M836.717,944.492c-0.358,1.266-0.948,2.456-1.769,3.473c0.883,0.348,1.703,0.876,2.314,1.486
				c1.075,1.075,1.521,2.258,1.77,3.618c0.223-0.26,0.467-0.503,0.729-0.731c-0.111-1.564,0.021-3.149,0.401-4.664
				C838.516,947.111,837.366,945.924,836.717,944.492z"/>
			<path style="fill:#02B3D9;" d="M815.311,903.762c0.085-0.739,0.261-1.466,0.527-2.153c-0.396,0.31-0.813,0.579-1.251,0.807
				C814.83,902.857,815.073,903.306,815.311,903.762z"/>
			<path style="fill:#02B3D9;" d="M488.17,918.94c1.098,0.046,2.243,0.338,3.392,0.929c0.978-0.656,1.952-1.324,2.924-2.004
				c-0.822-2.348-0.72-5.059,0.304-7.318C491.217,910.449,487.902,914.588,488.17,918.94z"/>
			<path style="fill:#02B3D9;" d="M432.177,932.814c0.356,0.855,0.71,1.71,1.065,2.565c0.454,0.108,0.911,0.208,1.37,0.303
				c-0.237-0.62-0.474-1.239-0.711-1.858l-1.288-0.742C432.464,932.996,432.319,932.906,432.177,932.814z"/>
			<path style="fill:#02B3D9;" d="M1911.616,1515.583c-3.452-27.624,3.131-55.372,6.054-83.057
				c2.921-27.685,1.465-57.885-15.442-80.003c-4.307-5.634-11.385-10.993-17.914-8.224c-2.699,1.144-4.693,3.512-6.222,6.014
				c-16.234,26.563,1.051,65.441-33.477,83.248c-28.733,14.817-64.638-10.936-83.964-31.123
				c-51.909-54.227-65.86-133.337-77.92-207.428c-7.074-43.461-14.689-87.608-31.192-128.659
				c-8.875-22.073-37.884-88.779-67.508-89.673c-10.51-0.311-13.772,14.264-12.136,24.645c5.83,37.022,27.748,69.119,45.635,102.053
				c17.887,32.934,32.414,71.291,21.973,107.286c-1.104,3.806-2.894,7.971-6.618,9.325c-6.209,2.258-11.592-4.641-17.596-7.4
				c-12.249-5.632-26.017,8.528-25.717,22.007c0.3,13.479,9.182,25.005,17.153,35.879c39.065,53.298,65.528,123.579,41.917,185.297
				c-4.597,12.015-11.934,24.195-23.966,28.745c-15.436,5.838-32.574-2.974-44.986-13.851
				c-47.122-41.289-62.305-113.615-116.061-145.795c-7.831,43.758,47.986,76.723,48.001,121.177
				c-11.019-3.159-22.039-6.317-33.059-9.475c-2.781,19.372,7.319,38.252,19.145,53.846c11.825,15.594,25.93,29.953,33.362,48.057
				c7.433,18.104,6.062,41.877-9.513,53.728c-3.132,2.384-6.797,4.281-8.992,7.548c-6.426,9.565,3.505,21.257,11.234,29.802
				c24.946,27.578,32.089,69.947,17.567,104.179c-30.488,71.866-144.504,78.984-211.036,71.525
				c-79.375-8.899-155.827-46.467-209.938-105.446c-83.361-90.864-111.928-226.82-77.979-345.364
				c15.778-55.094,43.38-116.343,14.745-165.984c-7.474,12.668-27.766,2.1-33.889-11.273c-6.124-13.373-9.37-30.805-23.159-35.922
				c-23.833-8.841-36.777,27.279-56.24,43.632c-16.048,13.471-36.148,8.128-53.186-2.269
				c-26.995-16.473-34.875-52.299-33.534-83.895c1.341-31.596,9.257-63.421,3.386-94.496c-0.374-1.981-0.845-4.037-2.139-5.582
				c-5.27-6.287-14.825,2.025-17.847,9.652c-3.022,7.626-9.412,17.487-16.734,13.788c-3.555-1.796-4.879-6.113-5.833-9.979
				c-10.158-41.129-11.673-86.674-52.592-110.377c-4.544-2.633-9.833-4.819-14.941-3.595c-7.689,1.842-11.478,10.19-16.333,16.43
				c-34.092,43.813-80.516-24.19-116.694-28.115c-81.381-8.826-78.783,128.796-172.835,80.461
				c-11.566-5.944-25.258-10.584-37.354-5.815c-3.003,16.257,7.102,31.645,12.283,47.345c5.181,15.699,1.532,38.185-14.758,41.006
				c-10.363,1.796-20.706-5.804-31.031-3.798c-10.815,2.101-17.122,14.414-16.373,25.407c0.749,10.992,6.682,20.863,12.482,30.231
				c46.55,75.174,98.844,146.841,145.209,221.995c14.657,23.758,65.417,127.14-4.346,91.172
				c-15.163-7.817-35.897-2.05-44.842,12.477c-3.422,5.557-5.261,12.092-9.455,17.09c-9.017,10.742-25.617,10.832-39.131,7.081
				c-61.07-16.946-90.326-85.203-138.72-126.127c-16.408-13.875-42.324-24.223-57.945-9.468
				c-10.474,9.893-10.604,26.546-7.373,40.587c7.112,30.913,26.257,57.468,44.964,83.086c17.949,24.58,53.958,57.949,62.833,86.914
				c10.516,34.318-16.432,25.997-36.207,37.868c-8.946,5.37-12.102,17.381-9.954,27.591c1.472,7.001,4.929,13.322,9.078,19.214
				c1.904,2.703,3.954,5.318,6.025,7.865c48.746,59.952,122.472,100.862,190.532,135.232
				c71.501,36.106,147.98,61.646,225.887,79.796c156.849,36.541,319.096,43.94,479.608,43.479
				c108.876-0.313,217.751-0.625,326.627-0.938c75.175-0.215,204.211,21.115,235.579-72.106c4.597-13.662,6.22-28.218,11.254-41.725
				c12.664-33.977,44.47-56.269,73.474-78.03c43.81-32.87,88.791-77.887,84.586-132.497
				C1916.587,1539.634,1913.136,1527.744,1911.616,1515.583z"/>
			<path style="fill:#02B3D9;" d="M361.389,744.575c2.491,15.903,5.029,31.853,7.52,47.755c3.401,21.65,6.802,43.301,10.25,64.951
				c0.665,4.226,1.483,8.382,2.45,12.441c0.642-1.137,1.608-2.089,2.797-2.722c2.003-1.064,4.133-1.064,6.135,0l0.333,0.185
				c2.061,1.144,3.336,3.483,3.336,5.816c0,2.374-1.288,4.617-3.336,5.816c-2.078,1.216-4.72,1.216-6.798,0
				c0.917,2.999,1.923,5.928,3.014,8.778c0.083-0.445,0.211-0.889,0.406-1.335c0.505-1.152,2.071-1.539,3.17-1.29
				c1.38,0.313,2.513,1.314,3.561,2.355c3.373-3.326,8.544-3.072,11.642,0.762c1.96,1.364,3.563,3.309,3.947,5.645
				c0.178,1.08,0.355,2.16,0.532,3.24c0.526,1.956,0.526,3.913,0,5.869c-0.168,0.598-0.383,1.167-0.637,1.714
				c1.072,1.996,0.737,4.482-0.574,6.29c0.8,0.693,1.444,1.462,2.03,2.497c0.71,1.255,1.42,2.51,2.131,3.766
				c1.414,2.5,0.438,5.681-1.969,6.996c0.203,0.172,0.408,0.341,0.613,0.51c0.049-0.04,0.096-0.082,0.147-0.121
				c1.325-1.023,2.35-1.62,4.019-2.16c1.145-0.37,2.315-0.52,3.475-0.485c0.458-0.18,0.938-0.302,1.412-0.366
				c0.721-0.161,1.442-0.129,2.164,0.097l1.296,0.546c1.004,0.493,2.008,0.985,3.012,1.477c0.372,0.182,0.716,0.415,1.03,0.686
				c0.963-1.109,2.644-1.77,4.047-1.267c0.992,0.356,2.019,0.667,2.983,1.098c0.374-0.264,0.768-0.487,1.175-0.659
				c3.093-1.306,6.408-0.071,8.204,2.688c0.733,1.126,1.466,2.252,2.199,3.377c0.58-1.045,1.693-1.954,2.767-2.152l1.124-0.208
				c2.526-0.411,4.662,0.065,6.603,1.809c0.08,0.071,0.159,0.145,0.237,0.218c0.409-0.507,0.844-0.986,1.288-1.473
				c1.599-1.589,3.485-2.687,5.656-3.296c1.136-0.152,2.271-0.305,3.407-0.458c1.375-0.053,2.677,0.163,3.909,0.64
				c0.018-0.089,0.034-0.179,0.054-0.266c0.309-1.356,1.234-2.396,2.112-3.412l1.259-1.458c0.978-1.133,2.463-1.718,3.936-1.935
				c-0.013-5.278,2.354-10.566,6.472-14.119c5.059-4.363,11.565-5.393,17.394-3.427c1.805-0.871,3.843-1.318,5.761-1.406
				c2.711-0.125,5.359,0.278,7.8,1.454c0.884-0.779,1.765-1.56,2.639-2.344c-1.009,0.407-2.06,0.667-3.193,0.549
				c-1.851-0.193-3.26-0.543-4.724-1.674c-0.848-0.549-1.518-1.279-2.008-2.188c-0.261-0.621-0.524-1.241-0.786-1.862
				c-0.106-0.783-0.212-1.566-0.316-2.349c0.005-1.462,0.373-2.825,1.106-4.088l0.637-1.358c0.825-1.761,2.567-3.052,4.466-3.727
				c0.217-0.154,0.448-0.296,0.689-0.427l0.888-0.55c1.914-1.188,4.62-1.188,6.535,0l0.888,0.55
				c1.237,0.732,2.221,1.717,2.953,2.954c0.276,0.655,0.553,1.311,0.83,1.966c0.098,0.73,0.196,1.459,0.294,2.189
				c0.04,1.077-0.174,2.085-0.638,3.025c1.166-1.092,2.32-2.184,3.464-3.272c-2.401-1.568-3.897-4.067-4.489-6.798
				c-0.482-0.49-0.904-1.04-1.266-1.651c-0.283-0.672-0.567-1.344-0.851-2.016c-0.576-1.781-0.282-3.817,0.425-5.494
				c0.728-1.725,1.885-3.025,3.452-4.034c1.726-1.113,4.551-1.471,6.502-0.851c0.201,0.064,0.404,0.129,0.606,0.193
				c0.538-0.071,1.097-0.112,1.683-0.112c0.647,0,1.264,0.046,1.852,0.132c0.178-0.436,0.385-0.864,0.627-1.283
				c0.888-1.5,2.082-2.694,3.582-3.581c0.402-0.282,0.849-0.482,1.34-0.599c0.786-0.456,1.635-0.686,2.545-0.689
				c0.584-0.157,1.168-0.21,1.751-0.162c0.146-0.471,0.333-0.931,0.568-1.377c0.43-1.322,1.166-2.466,2.205-3.432
				c0.872-0.938,1.891-1.626,3.051-2.068c-0.117-0.874-0.234-1.747-0.352-2.62c-0.052-1.366,0.233-2.64,0.854-3.823
				c0.4-1.23,1.084-2.294,2.051-3.193c0.899-0.968,1.964-1.652,3.194-2.052c1.182-0.621,2.457-0.906,3.823-0.855
				c0.405-0.033,0.811-0.066,1.216-0.098c0.199-0.471,0.399-0.943,0.598-1.415c0.535-0.693,1.07-1.386,1.606-2.078
				c0.93-1.002,2.032-1.71,3.305-2.124c0.801-0.464,1.665-0.698,2.592-0.701c0.505-0.113,1.009-0.176,1.514-0.188
				c0.196-1.737,0.702-3.406,1.526-4.965c1.18-2.233,3.368-3.863,5.63-4.818c1.403-0.737,2.915-1.076,4.536-1.014
				c1.044,0.14,2.087,0.28,3.13,0.42c2.717,0.708,4.815,2.201,6.555,4.289c1.094,1.017,1.868,2.221,2.321,3.613
				c0.084,0.145,0.158,0.292,0.229,0.44c0.465-0.215,0.932-0.428,1.4-0.636c-0.364-0.701-0.661-1.442-0.881-2.228
				c-0.136-1.012-0.272-2.023-0.408-3.034c-0.011-0.293-0.005-0.582,0.012-0.868c-0.195-0.167-0.386-0.34-0.568-0.522
				c-1.495-1.495-2.086-3.197-2.845-5.094c-0.361-0.904-0.722-1.807-1.083-2.712c-0.543-2.023-0.543-4.046,0-6.068
				c0.543-1.934,1.521-3.612,2.936-5.037c2.069-2.069,5.144-3.343,8.07-3.343c3.093,0,5.838,1.293,8.07,3.343
				c1.414,1.424,2.393,3.103,2.935,5.037c0.515,1.915,0.542,3.83,0.082,5.745c0.625,0.482,1.25,0.965,1.875,1.448
				c0.042,0.042,0.079,0.086,0.121,0.129c0.003,0,0.004,0,0.007,0c1.283-0.288,2.567-0.23,3.849,0.172
				c1.635,0.459,3.055,1.287,4.259,2.482c0.82,0.82,1.459,1.761,1.92,2.774c1.011-0.094,2.022-0.166,3.035-0.216
				c0.068-0.088,0.135-0.176,0.203-0.264c0.731-0.787,1.598-1.344,2.599-1.67c0.631-0.365,1.309-0.549,2.039-0.552
				c1.074-0.24,2.147-0.193,3.22,0.144c0.643,0.272,1.287,0.543,1.93,0.814c0.877,0.465,1.754,0.93,2.63,1.394
				c0.469,0.248,0.905,0.552,1.309,0.893c0.594,0.098,1.187,0.208,1.779,0.323c0.208-0.422,0.482-0.807,0.823-1.151
				c0.61-0.942,1.419-1.685,2.428-2.228c0.218-0.092,0.436-0.184,0.654-0.276c-0.568-1.423-0.858-2.966-0.926-4.482
				c-0.128-2.843,1.363-6.09,3.343-8.07c2.07-2.07,5.144-3.343,8.071-3.343c3.092,0,5.837,1.293,8.07,3.343
				c2.241,2.057,3.211,5.119,3.343,8.07c0.064,1.436-0.284,2.974-0.9,4.401c0.369,0.154,0.73,0.337,1.073,0.559
				c1.798,1.158,3.38,2.885,3.869,5.031c0.287,1.259,0.314,2.498,0.106,3.668c3.216,1.831,3.984,6.307,2.313,9.412
				c0.618-0.3,1.31-0.467,2.04-0.515c1.922-0.127,4.162,0.973,5.985,1.562c3.103,1.004,4.81,4.257,3.516,7.323
				c-0.159,0.377-0.371,0.734-0.622,1.067c0.429,0.35,0.858,0.701,1.285,1.051c1.057-0.833,2.443-1.348,4.161-1.348
				c5.683,0,7.74,5.613,6.185,9.692c1.104,0.859,2.209,1.703,3.32,2.53c-0.07-0.743,0.003-1.479,0.263-2.129
				c0.856-2.128,3.428-3.31,5.53-3.411c1.481-0.07,2.971-0.055,4.454-0.083c5.084-0.095,8.408,5.324,6.497,9.85
				c-0.796,1.888-2.26,3.331-4.205,3.993c1.4,0.769,2.815,1.489,4.247,2.153c0.571-4.903,4.037-9.404,10.397-9.404
				c6.848,0,10.336,5.202,10.476,10.513c0.444,0.466,0.829,0.988,1.145,1.558c0.219-0.625,0.566-1.177,1.04-1.655
				c0.62-0.957,1.442-1.713,2.467-2.265l2.101-0.887l2.338-0.314c1.211-0.046,2.34,0.206,3.388,0.758
				c0.745,0.209,1.391,0.586,1.94,1.13c0.598,0.387,1.116,0.853,1.556,1.398c1.232-1.307,3.013-2.164,5.345-2.164
				c3.338,0,5.545,1.749,6.628,4.065c-0.608-4.592,2.076-9.705,8.048-9.705c2.281,0,4.079,0.746,5.401,1.921
				c0.754-0.577,1.587-1.016,2.503-1.315c0.876-0.508,1.82-0.763,2.834-0.766c1.492-0.334,2.984-0.268,4.476,0.2
				c0.894,0.377,1.788,0.754,2.682,1.131c0.757,0.585,1.515,1.17,2.272,1.756c0.585,0.757,1.171,1.514,1.756,2.272
				c0.377,0.894,0.754,1.788,1.131,2.682l0.401,2.984c0.059,1.546-0.264,2.987-0.967,4.325c-0.267,0.951-0.748,1.776-1.443,2.477
				c-0.463,0.782-1.076,1.414-1.834,1.901c0.977,0.601,1.93,1.245,2.861,1.933c0.407-0.096,0.822-0.161,1.246-0.197
				c0.945-0.798,2.173-1.289,3.587-1.377c3.205-0.2,6.31,1.866,9.141,3.234c2.609,1.262,4.17,4.486,4.17,7.271
				c0,1.106-0.247,2.241-0.694,3.29c1.17-0.846,2.67-1.365,4.504-1.365c8.194,0,9.748,10.281,4.691,14.212
				c3.692,3.137,3.353,9.976-1.002,12.445c-0.767,0.76-1.657,1.307-2.675,1.638c-0.074,0.039-0.149,0.073-0.224,0.109
				c0.316,1.095,0.629,2.212,0.936,3.354c0.297,1.094,0.578,2.197,0.853,3.304c0.717-0.158,1.486-0.244,2.313-0.244
				c4.958,0,7.952,3.043,8.987,6.722c0.914-2.013,2.81-3.542,5.689-3.542c3.083,0,5.038,1.749,5.866,3.967
				c1.184-0.35,2.488-0.545,3.918-0.545c6.068,0,9.917,3.435,11.557,7.797c0.224,0.015,0.448,0.031,0.673,0.047
				c1.501,0.106,2.514,1.129,2.619,2.62c0.006,0.083,0.012,0.166,0.018,0.248c0.47,0.22,0.927,0.487,1.376,0.766
				c0.019-0.053,0.038-0.107,0.056-0.16c0.9-2.539,1.812-5.061,2.731-7.572c-0.57,0.185-1.206,0.289-1.909,0.289
				c-3.427,0-5.279-2.437-5.563-5.077c-0.587-0.056-1.17-0.188-1.734-0.406l-1.244-0.483l-1.251-0.525
				c-0.731-0.432-1.313-1.014-1.745-1.745c-0.233-0.397-0.412-0.958-0.594-1.429l-0.518-1.333c-0.383-1.426-0.383-2.852,0-4.278
				c0.383-1.363,1.073-2.546,2.07-3.55c2.028-2.029,5.059-2.831,7.827-2.069c2.61,0.719,5.005,2.921,5.62,5.619
				c0.332,1.46,0.35,2.954-0.039,4.366c0.984,0.547,1.707,1.38,2.167,2.348c21.672-57.113,48.552-107.515,80.018-159.607
				c1.246-2.011,2.491-4.022,3.736-6.082c42.821-70.267,88.181-157.779,68.638-242.654c-6.226-27.063-22.224-54.7-48.856-62.748
				c-5.94-1.772-12.31-2.586-17.531-5.892c-10.633-6.61-13.412-21.218-22.847-29.457c-7.664-6.658-18.346-8.143-27.638-12.214
				c-31.182-13.699-21.698-103.222-22.226-131.29c-0.526-30.416-4.31-62.364-21.842-87.224
				c-17.531-24.859-52.592-39.659-79.607-25.625c-39.948,20.74-46.701,86.217-66.1,122.716
				c-13.221,24.812-32.332,47.994-58.436,58.389c-26.104,10.442-59.921,4.694-75.823-18.538c-2.922-4.262-5.461-9.292-10.059-11.687
				c-11.496-6.035-23.135,7.903-27.637,20.07c-15.999,42.869-15.999,89.953-27.302,134.307
				c-11.304,44.354-39.516,89.953-84.398,99.007c-8.095,1.628-16.717,1.916-24.332-1.293c-8.574-3.545-14.801-11.065-21.699-17.244
				c-6.898-6.227-15.998-11.591-25.051-9.484c-34.726,8.142-21.65,85.115-18.106,107.484
				C351.953,684.701,356.647,714.638,361.389,744.575z"/>
		</g>
		<path style="fill:#0083BD;" d="M385.099,700.317c3.688-21.123,16.238-47.851,37.217-43.54c13.173,2.682,20.213,16.765,30.99,24.86
			c23.471,17.531,59.346,0.91,73.524-24.763s13.699-56.521,16.141-85.738c2.923-35.541,10.681-70.698,22.896-104.179
			c4.886-13.364,10.825-26.871,21.315-36.451c10.49-9.58,26.727-14.178,39.277-7.52c12.118,6.467,17.243,20.74,23.278,33.002
			c8.382,16.956,22.321,33.385,41.049,35.684c19.782,2.491,38.51-12.071,47.276-29.984c8.766-17.866,9.771-38.414,10.442-58.34
			c0.767-21.506,3.593-46.941,22.417-57.382c23.277-12.932,52.975,9.82,58.675,35.828c5.748,26.009-3.88,52.545-10.298,78.41
			c-6.706,26.919-9.963,54.749-9.723,82.529c0.144,20.07,2.586,41.289,14.752,57.288c12.166,15.998,36.882,23.853,52.976,11.878
			c11.256-8.382,17.914-25.147,31.948-25.721c15.806-0.67,22.944,19.83,22.609,35.685c-0.815,36.547-14.657,73.476-5.461,108.874
			c4.502,17.242,14.609,32.044,27.925,43.491c1.246-2.011,2.491-4.022,3.736-6.082c42.821-70.267,88.181-157.779,68.638-242.654
			c-6.226-27.063-22.224-54.7-48.856-62.748c-5.94-1.772-12.31-2.586-17.531-5.892c-10.633-6.61-13.412-21.218-22.847-29.457
			c-7.664-6.658-18.346-8.143-27.638-12.214c-31.182-13.699-21.698-103.222-22.226-131.29c-0.526-30.416-4.31-62.364-21.842-87.224
			c-17.531-24.859-52.592-39.659-79.607-25.625c-39.948,20.74-46.701,86.217-66.1,122.716
			c-13.221,24.812-32.332,47.994-58.436,58.389c-26.104,10.442-59.921,4.694-75.823-18.538c-2.922-4.262-5.461-9.292-10.059-11.687
			c-11.496-6.035-23.135,7.903-27.637,20.07c-15.999,42.869-15.999,89.953-27.302,134.307
			c-11.304,44.354-39.516,89.953-84.398,99.007c-8.095,1.628-16.717,1.916-24.332-1.293c-8.574-3.545-14.801-11.065-21.699-17.244
			c-6.898-6.227-15.998-11.591-25.051-9.484c-34.726,8.142-21.65,85.115-18.106,107.484c4.743,29.936,9.437,59.873,14.179,89.81
			C375.423,737.677,382.32,716.171,385.099,700.317z"/>
		<path style="fill:#50BBDB;" d="M556.4,712.867c33.834-20.456,56.837-58.856,56.178-98.385c-0.216-12.96-2.812-26.002-0.729-38.795
			c2.082-12.794,10.631-25.893,23.469-27.681c17.417-2.426,30.154,15.767,46.315,22.697c20.22,8.672,43.773-1.479,60.751-15.472
			c24.011-19.789,41.858-51.753,33.132-81.62c-2.226-7.619-8.34-15.933-16.134-14.427c-6.435,1.244-9.644,8.402-11.464,14.699
			c-4.57,15.817-7.737,33.593-20.496,43.999c-14.986,12.222-38.199,8.85-53.864-2.488c-20.082-14.533-28.317-38.365-44.097-56.54
			c-3.261-3.756-6.651-7.613-11.132-9.774c-10.472-5.049-23.575,1.197-30.09,10.824c-6.514,9.628-8.082,21.659-9.471,33.2
			l-13.743,114.097c-2.172,18.036-4.402,36.308-11.12,53.187c-6.158,15.474-27.026,27.476-31.067,41.387
			C516.282,724.336,543.048,720.938,556.4,712.867z"/>
		<path style="fill:#50BBDB;" d="M759.022,583.961c-12.386,12.877-12.63,33.253-8.491,50.626
			c7.389,31.025,28.005,60.178,57.857,71.403c29.853,11.225,68.304,0.109,82.555-28.423c4.492-8.994,6.42-19.907,2.324-29.088
			c-10.716-24.016-49.301-2.216-70.253-8.957l-0.985-0.343c-11.877-4.468-20.786-14.538-27.581-25.253
			C787.406,602.821,776.47,565.83,759.022,583.961z"/>
		<path style="fill:#50BBDB;" d="M872.798,749.54c-8.75,17.539,0.682,37.361,14.055,50.098c4.65,4.428,9.999,8.486,16.277,9.829
			c21.29,4.556,21.044-22.887,19.964-36.833c-0.907-11.725-4.802-23.881-13.796-31.459
			C895.519,729.565,880.016,735.071,872.798,749.54z"/>
		<path style="fill:#50BBDB;" d="M434.753,762.119c3.746,0.939,7.812,1.359,11.388-0.098c6.693-2.725,9.304-10.846,9.78-18.056
			c0.936-14.183-3.711-29.138-14.272-38.654c-29.243-26.352-50.008,5.367-35.333,34.158
			C411.989,750.599,422.633,759.078,434.753,762.119z"/>
		<path style="fill:#50BBDB;" d="M552.516,1034.731c26.707-18.396,23.772-53.454,45.38-74.214
			c28.778-27.646,58.589,8.414,86.38,16.888c16,4.878,31.216-3.787,45.939-0.52c18.426,4.09,17.185,29.206,19.138,43.555
			c3.458,25.403,11.767,40.646,33.227,53.809c7.656,4.696,10.326,2.614,13.613,12.443c2.768,8.282,3.267,17.988,5.306,26.559
			c4.266,17.928,8.693,34.858,16.944,51.413c2.187,4.386,10.1,3.625,10.944-1.43c3.255-19.495,2.766-39.037,1.225-58.687
			c-1.115-14.224-1.671-32.682-9.968-44.848c-8.186-12.006-22.269-10.588-31.271-20.58c-9.818-10.895-7.151-34.068-9.85-47.606
			c-5.136-25.772-20.867-48.285-49.308-48.518c-10.965-0.09-21.286,4.596-32.267,2.544c-9.705-1.814-17.691-7.557-26.001-12.575
			c-12.401-7.488-24.572-14.593-39.16-16.779c-28.713-4.301-57.29,9.762-72.363,34.35c-8.132,13.267-10.389,30.493-19.679,42.866
			c-16.404,21.849-29.706,6.548-48.342-1.804c-23.432-10.5-49.265-4.825-60.125,19.962c-6.273,14.319-3.936,27.982-1.847,42.895
			c1.454,10.381,4.875,21.917-1.108,31.627c-4.708,7.64-14.197,10.69-20.507,16.833c-6.83,6.651-3.11,17.535,5.366,20.328
			c21.403,7.049,43.362-11.926,51.719-30.725c5.616-12.635,4.653-25.589,2.839-38.979c-0.293-2.161-5.301-24.214-0.128-27.745
			c4.268-2.914,12.487,3.214,15.952,4.907C507.51,1041.911,529.106,1050.857,552.516,1034.731z"/>
		<path style="fill:#50BBDB;" d="M1561.156,1556.8c-1.566,7.59-6.516,11.374-6.315,20.156c0.228,10,5.349,18.869,7.856,28.41
			c4.266,16.236,3.211,32.056,5.339,48.427c1.032,7.945,10.948,9.672,13.967,1.891c5.329-13.738,5.122-27.307,3.277-41.989
			c-1.166-9.282-5.154-18.339-6.168-27.441c-1.839-16.511,2.438-17.751,5.622-29.956c4.071-15.605-2.431-28.979-12.267-40.217
			c13.747,6.33,28.743,19.381,40.17,20.886c13.569,1.787,27.473-1.902,39.121-8.929c32.686-19.717,39.546-59.777,39.018-94.942
			c-0.197-13.14,2.794-22.641,6.933-34.718c1.956-5.704,3.905-10.564,3.863-16.75c-0.096-14.238-8.428-25.921-15.684-37.499
			c-13.789-22.003-11.704-36.831-3.34-60.45c4.95-13.981,5.546-25.424-3.865-37.675c-2.157-2.809-6.536-1.268-5.813,2.451
			c3.64,18.749-11.299,36.326-15.794,53.714c-3.262,12.611-2.183,23.795,2.932,35.788c4.455,10.445,12.577,19.255,16.676,29.758
			c7.276,18.641-6.026,29.092-8.224,46.569c-4.539,36.104,7.972,93.334-42.883,103.222c-32.519,6.322-50.331-42.229-84.949-20.527
			c-5.123,3.211-7.685,12.117-2.123,16.473C1552.978,1524.785,1565.424,1536.103,1561.156,1556.8z"/>
		<path style="fill:#50BBDB;" d="M1866.754,1439.291c-15.044,4.107-29.379,11.694-44.757,14.56
			c-18.134,3.38-35.401,0.619-53.29-2.571c-6.649-1.186-14.073,7.508-7.464,12.821c31.413,25.256,93.153,23.448,113.54-14.365
			C1877.69,1444.345,1872.882,1437.618,1866.754,1439.291z"/>
		<path style="fill:#50BBDB;" d="M1843.746,1482.398c-3.47,1.662-6.797,2.227-10.202,3.614c-4.484,1.827-8.621,6.067-12.659,8.759
			c-8.091,5.392-16.337,10.852-24.711,15.79c-8.833,5.209-2.814,18.085,6.775,16.074c10.87-2.281,20.363-5.624,29.744-11.663
			c4.23-2.724,8.76-5.59,12.406-9.078c3.832-3.666,5.672-9.353,8.119-14.024C1856.554,1485.503,1849.954,1479.425,1843.746,1482.398
			z"/>
		<path style="fill:#009ED1;" d="M1725.809,1719.299c-13.659-4.445-26.384,8.66-33.876,20.916
			c-7.49,12.256-16.441,26.847-30.793,27.414c-28.567,1.13-35.181-52.084-63.742-50.796c-19.328,0.871-37.685,34.446-50.932,46.768
			c-20.474,19.046-44.171,35.454-70.386,45.478c-57.312,21.915-121.03,15.583-182.028,8.931
			c-112.194-12.234-177.653-36.22-232.295-136.504c-13.579-24.921-33.807-50.044-61.977-53.492
			c2.394,13.935,4.788,27.871,7.181,41.807c-51.5-19.754-56.382-90.781-91.293-133.485c-15.034-18.391-46.476-30.15-60.642-11.082
			c-7.053,9.495-6.166,22.705-3.066,34.119c12.533,46.153,55.571,88.668,40.428,134.032c-32.069-15.024-64.137-30.05-96.206-45.074
			c-9.724-4.556-19.924-9.214-30.654-8.791c-10.731,0.422-22.015,7.714-23.076,18.4c-0.839,8.442,4.611,16.078,9.782,22.804
			c11.348,14.758,22.696,29.516,34.043,44.275c6.763,8.795,13.897,18.847,12.582,29.864c-2.166,18.156-26.04,25.656-43.544,20.371
			c-17.504-5.285-31.524-18.387-48.18-25.93c-16.657-7.543-40.12-7.192-49.122,8.724c-3.185,5.632-3.77,12.11-2.484,18.412
			c1.51,7.403,5.599,14.563,11.082,19.827c10.152,9.745,23.955,14.51,37.291,19c84.783,28.543,168.948,21.267,257.147,23.852
			c146.754,4.299,293.56,6.853,440.372,7.683c52.156,0.295,392.894,12.157,338.549-112.947
			C1737.189,1727.47,1732.45,1721.461,1725.809,1719.299z"/>
		<path style="fill:#50BBDB;" d="M657.589,1535.355c-1.076,8.932-2.814,18.289,0.392,26.695c2.423,6.353,7.412,11.366,12.604,15.755
			c105.603,89.261,125.726-42.026,94.748-120.987c-17.042-43.436-45.768-81.427-78.037-115.128
			c-28.239-29.491-60.2-57.229-76.729-94.565c-13.129-29.654-15.333-62.887-24.535-93.985c-9.202-31.098-28.85-62.722-60.274-70.744
			c-4.109-1.049-8.51-1.651-12.549-0.356c-10.21,3.272-13.161,16.817-10.428,27.185c2.732,10.367,9.223,19.494,11.537,29.963
			c4.264,19.288-6.286,38.89-5.543,58.629c0.59,15.65,8.2,30.099,16.221,43.55c28.158,47.221,63.522,89.863,91.25,137.337
			C643.973,1426.178,664.164,1480.771,657.589,1535.355z"/>
		<path style="fill:#50BBDB;" d="M801.822,1217.572c-27.347-34.553-52.188-71.088-74.265-109.224
			c-20.281-35.035-43.373-75.388-83.146-82.931c-4.608-0.874-9.566-1.21-13.813,0.78c-9.371,4.392-10.594,17.514-7.479,27.384
			c7.072,22.406,28.68,39.205,31.202,62.565c1.119,10.367-1.76,20.914-0.176,31.219c1.663,10.816,8.047,20.251,14.52,29.073
			c30.254,41.239,66.271,78.244,106.675,109.603c13.289,10.314,27.899,21.196,32.588,37.351c6.786,23.376-9.895,47.314-9.276,71.645
			c1.449,56.09,82.957,64.232,113.577,102.562c6.75,8.449,13.075,17.976,22.88,22.537c9.805,4.561,24.31,1.021,26.546-9.56
			c1.132-5.355-1.129-10.781-3.34-15.788c-19.735-44.692-31.909-75.539-27.389-125.257c5.309-44.505,6.619-95.395-24.733-127.425
			c-11.177-11.418-27.631-19.545-43.035-15.301c-10.484,2.888-19.44,11.163-30.311,11.434
			C819.942,1238.563,809.833,1227.694,801.822,1217.572z"/>
		<path style="fill:#50BBDB;" d="M980.655,1499.639c1.787,13.579,7.946,31.015,21.615,30.173
			c15.58-34.613,3.267-74.688,3.899-112.64c0.651-39.068,15.276-76.407,30.352-112.455c4.677-11.182,9.512-22.892,8.512-34.972
			c-1.291-15.568-12.546-29.158-26.502-36.178c-69.583-34.998-64.855,51.783-59.474,95.838
			C965.991,1386.183,973.191,1442.928,980.655,1499.639z"/>
		<path style="fill:#50BBDB;" d="M668.84,1691.535c2.633-43.771-58.98-64.339-70.92-106.533c-6.6-23.323,3.561-48.552-1.091-72.339
			c-16.535-84.539-140.219-55.933-162.735,8.436c-7.134,20.396,4.095,43.233,20.116,57.73c16.022,14.498,36.32,23.196,54.504,34.868
			c46.909,30.109,79.458,81.627,86.506,136.921c9.964,6.827,23.811,5.758,34.443,0.026c10.632-5.733,18.574-15.391,25.36-25.383
			C661.933,1715.085,668.102,1703.813,668.84,1691.535z"/>
		<path style="fill:#50BBDB;" d="M494.453,1647.031c-22.446-28.214-85.566-101.787-119.096-55.081
			c-40.359,56.22,55.658,99.066,92.476,110.205c11.017,3.333,23.967,5.622,33.215-1.233c8.156-6.045,10.528-17.68,8.202-27.564
			C506.925,1663.476,500.774,1654.976,494.453,1647.031z"/>
		<path style="fill:#50BBDB;" d="M1690.281,1572.208c-7.656-7.253-19.658-10.648-29.1-5.953
			c-7.596,3.776-12.067,11.697-16.061,19.181c-13.644,25.565-27.371,52.915-25.699,81.844c1.672,28.929,25.112,58.654,53.984,56.18
			l-9.91-11.81c33.092-25.477,49.597-70.747,40.666-111.544C1701.907,1589.805,1697.935,1579.462,1690.281,1572.208z"/>
		<path style="fill:#50BBDB;" d="M1825.26,1587.492c-11.036-8.719-27.262-9.22-39.886-3.017
			c-12.623,6.203-21.747,18.248-26.526,31.477l-2.619-9.747c-11.918,26.72-47.885,102.962,6.372,103.559
			c24.519,0.27,61.393-49.565,70.727-69.045C1841.704,1623.23,1840.475,1599.514,1825.26,1587.492z"/>
	</g>
</g>
</svg>
